# xmcd
#
# Track frame offsets: 
#        150
#        10460
#        24197
#        35306
#        48491
#        59705
#        71555
#        83936
#        95326
#        105139
#        117446
#        127362
#        139594
#        150409
#        159403
#        169651
#        178319
#        190523
#        200126
#        207720
#        219728
#        229334
#        241403
#        254162
#
# Disc length: 3546 seconds
#
# Revision: 1
# Processed by: cddbd v1.5.2PL0 Copyright (c) Steve Scherf et al.
# Submitted via: ExactAudioCopy v1.0b1
#
DISCID=620dd818
DTITLE=Various Artist - Heralding The Hits [CD2]
DYEAR=2002
DGENRE=R&B/Soul
TTITLE0=The Embers - Paradise Hill
TTITLE1=The Thrillers - Please Talk To Me
TTITLE2=The Five Willows - Baby Come A Little Closer
TTITLE3=The Heralds - Eternal Love
TTITLE4=The Sunbeams - Come Back Baby
TTITLE5=The Turbans - Sister Sookey
TTITLE6=The Cashmeres - Little Dream Girl
TTITLE7=The Nutmegs - Key To The Kingdom
TTITLE8=The Desires - Cold Lonely Heart
TTITLE9=The Smoothtones - Dear Diary
TTITLE10=The Concords - I'm Satisfied With Rock 'n' Roll
TTITLE11=The Starlites - Tears Are Just For Fools
TTITLE12=The Five Satins - Our Anniversary
TTITLE13=The Silhouettes - Miss Thing
TTITLE14=The Loungers - Wedding Bells
TTITLE15=The Wonders - I'll Write A Book
TTITLE16=The Five Satins - I'll Be Seeing You
TTITLE17=The Fabulons - Give Me Back My Ring
TTITLE18=Maurice Williams And The Zodiacs - Come Along
TTITLE19=The Edsels - These Precious Words
TTITLE20=The Vocalaires - Dance Dance
TTITLE21=The Premiers - Diary Of Our Love
TTITLE22=The Paramounts - In A Dream
TTITLE23=The Bobtones - Running After You
EXTD=
EXTT0=
EXTT1=
EXTT2=
EXTT3=
EXTT4=
EXTT5=
EXTT6=
EXTT7=
EXTT8=
EXTT9=
EXTT10=
EXTT11=
EXTT12=
EXTT13=
EXTT14=
EXTT15=
EXTT16=
EXTT17=
EXTT18=
EXTT19=
EXTT20=
EXTT21=
EXTT22=
EXTT23=
PLAYORDER=
